<svg width="460.958" height="460.958" xmlns="http://www.w3.org/2000/svg" version="1.1" xml:space="preserve">
 <g>
  <title>Layer 1</title>
  <g id="svg_1">
   <g id="svg_2">
    <path stroke="#ffffff" fill="#fff" d="m337.843,23.957c-45.74,0 -86.155,25.047 -107.364,62.788c-21.209,-37.741 -61.623,-62.788 -107.364,-62.788c-67.886,0 -123.115,55.229 -123.115,123.115c0,54.355 37.736,119.46 112.16,193.506c54.115,53.84 107.363,92.031 109.603,93.631c2.607,1.861 5.662,2.792 8.716,2.792s6.109,-0.93 8.715,-2.792c2.241,-1.6 55.489,-39.791 109.604,-93.631c74.424,-74.046 112.16,-139.151 112.16,-193.506c0,-67.886 -55.229,-123.115 -123.115,-123.115zm-9.924,295.075c-39.843,39.681 -80.171,71.279 -97.44,84.307c-17.269,-13.029 -57.597,-44.626 -97.44,-84.307c-67.409,-67.133 -103.039,-126.596 -103.039,-171.96c0,-51.344 41.771,-93.115 93.115,-93.115c47.279,0 87.03,35.369 92.464,82.271c0.876,7.565 7.284,13.273 14.9,13.273c7.616,0 14.023,-5.708 14.9,-13.273c5.435,-46.902 45.185,-82.271 92.464,-82.271c51.344,0 93.115,41.771 93.115,93.115c0,45.364 -35.63,104.827 -103.039,171.96z" id="svg_3"/>
   </g>
  </g>
  <g id="svg_4"/>
  <g id="svg_5"/>
  <g id="svg_6"/>
  <g id="svg_7"/>
  <g id="svg_8"/>
  <g id="svg_9"/>
  <g id="svg_10"/>
  <g id="svg_11"/>
  <g id="svg_12"/>
  <g id="svg_13"/>
  <g id="svg_14"/>
  <g id="svg_15"/>
  <g id="svg_16"/>
  <g id="svg_17"/>
  <g id="svg_18"/>
 </g>

</svg>